<?xml version="1.0"?>
<svg xmlns="http://www.w3.org/2000/svg" xmlns:xlink="http://www.w3.org/1999/xlink" version="1.1" id="Capa_1" x="0px" y="0px" viewBox="0 0 512 512" style="enable-background:new 0 0 512 512;" xml:space="preserve" width="512px" height="512px"><g><g>
	<g>
		<path d="M474.667,420.002c-9.028-7.219-18.065-17.681-26.863-31.087c-24.994-38.084-38.204-84.42-38.204-133.999V204.8    c0-84.693-68.907-153.6-153.6-153.6s-153.6,68.907-153.6,153.6v50.116c0,49.579-13.21,95.915-38.204,134.008    c-8.798,13.414-17.835,23.868-26.863,31.087c-2.398,1.911-3.575,4.975-3.098,8.004c0.486,3.029,2.56,5.564,5.436,6.647    C42.522,435.729,111.053,460.8,256,460.8s213.487-25.071,216.328-26.146c2.876-1.084,4.949-3.618,5.436-6.647    C478.242,424.977,477.065,421.922,474.667,420.002z M256,443.733c-105.463,0-170.257-13.798-196.642-20.924    c6.502-6.869,12.902-15.07,19.106-24.525c26.82-40.875,41.003-90.453,41.003-143.369V204.8    c0-75.281,61.252-136.533,136.533-136.533S392.533,129.519,392.533,204.8v50.116c0,52.915,14.182,102.494,40.994,143.369    c6.212,9.455,12.604,17.656,19.115,24.525C426.257,429.935,361.464,443.733,256,443.733z" data-original="#000000" class="active-path" data-old_color="#000000" fill="#FFFFFF"/>
	</g>
</g><g>
	<g>
		<path d="M256,85.333c-0.009,0-0.017,0-0.026,0c-45.406,0-81.374,19.738-101.299,55.595c-2.295,4.113-0.802,9.301,3.311,11.597    c1.314,0.734,2.739,1.075,4.139,1.075c3.004,0,5.914-1.587,7.467-4.395c21.504-38.682,58.837-46.805,86.383-46.805    c0.009,0,0.017,0,0.026,0c4.71,0,8.533-3.814,8.533-8.533C264.533,89.156,260.71,85.333,256,85.333z" data-original="#000000" class="active-path" data-old_color="#000000" fill="#FFFFFF"/>
	</g>
</g><g>
	<g>
		<path d="M145.067,213.333c-4.71,0-8.533,3.814-8.533,8.533c0,59.674-4.855,122.786-40.09,179.968    c-2.475,4.011-1.22,9.267,2.79,11.742c1.391,0.853,2.935,1.263,4.463,1.263c2.859,0,5.666-1.442,7.27-4.053    c37.47-60.8,42.633-126.729,42.633-188.919C153.6,217.148,149.777,213.333,145.067,213.333z" data-original="#000000" class="active-path" data-old_color="#000000" fill="#FFFFFF"/>
	</g>
</g><g>
	<g>
		<path d="M256,0c-23.526,0-42.667,19.14-42.667,42.667v21.316c0,2.62,1.203,5.094,3.268,6.707c2.048,1.621,4.753,2.185,7.287,1.587    c21.803-5.308,42.402-5.325,64.222,0c0.666,0.154,1.348,0.239,2.022,0.239c1.894,0,3.755-0.631,5.274-1.826    c2.057-1.613,3.26-4.087,3.26-6.707V42.667C298.667,19.14,279.526,0,256,0z M281.6,53.487c-8.661-1.519-17.237-2.287-25.6-2.287    c-8.371,0-16.947,0.768-25.6,2.287v-10.82c0-14.114,11.486-25.6,25.6-25.6c14.114,0,25.6,11.486,25.6,25.6V53.487z" data-original="#000000" class="active-path" data-old_color="#000000" fill="#FFFFFF"/>
	</g>
</g><g>
	<g>
		<path d="M341.12,449.05c-0.341-4.693-4.412-8.363-9.114-7.893c-48.7,3.413-103.313,3.413-152.004,0    c-4.676-0.452-8.713,3.917-9.173,8.499c-0.085,0.87-0.162,1.732-0.162,2.611C170.667,485.76,208.154,512,256,512    c47.855,0,85.333-26.24,85.333-59.733C341.333,451.405,341.265,450.56,341.12,449.05z M256,494.933    c-33.451,0-62.208-15.966-67.422-36.113c43.537,2.62,91.281,2.62,134.844,0C318.208,478.968,289.451,494.933,256,494.933z" data-original="#000000" class="active-path" data-old_color="#000000" fill="#FFFFFF"/>
	</g>
</g></g> </svg>
