<svg id="Layer_1" height="512" viewBox="0 0 512 512" width="512" xmlns="http://www.w3.org/2000/svg" data-name="Layer 1"><path d="m230.835 339.757-22.759 20.892a5 5 0 0 0 -1.619 3.684v33.667h-13.292a5 5 0 0 0 -5 5v49a5 5 0 0 0 5 5h13.292v34.361a5 5 0 0 0 10 0v-34.361h12.689a5 5 0 0 0 5-5v-49a5 5 0 0 0 -5-5h-12.689v-31.47l22.759-20.892a5 5 0 0 0 1.619-3.683v-29.955h-10z"/><path d="m318.835 398h-13.292v-33.667a5 5 0 0 0 -1.619-3.684l-22.759-20.892v-28.873h-10v31.071a5 5 0 0 0 1.619 3.683l22.759 20.892v31.47h-12.689a5 5 0 0 0 -5 5v49a5 5 0 0 0 5 5h12.689v34.361a5 5 0 0 0 10 0v-34.361h13.292a5 5 0 0 0 5-5v-49a5 5 0 0 0 -5-5z"/><path d="m218.23 177.839h75.541v31.126h-75.541z"/><path d="m230.835 218.965h-17.605a5 5 0 0 1 -5-5v-41.126a5 5 0 0 1 5-5h85.54a5 5 0 0 1 5 5v41.126a5 5 0 0 1 -5 5h-17.6v40.161h81.661v-136.662a106.826 106.826 0 0 0 -213.652 0v136.662h81.661zm-30.735-165.481a88.537 88.537 0 0 0 -32.926 68.98v37.536a5 5 0 0 1 -10 0v-37.536a98.492 98.492 0 0 1 36.626-76.742 5 5 0 1 1 6.3 7.762zm5.947-10.57a5 5 0 0 1 1.929-6.8 98.585 98.585 0 0 1 17.337-7.595 5 5 0 1 1 3.112 9.5 88.537 88.537 0 0 0 -15.575 6.823 5 5 0 0 1 -6.8-1.928z"/><path d="m240.835 218.965h30.33v40.161h-30.33z"/><path d="m368.349 269.126h-224.7a20.761 20.761 0 0 0 -20.738 20.738v16.02h266.176v-16.02a20.761 20.761 0 0 0 -20.738-20.738z"/></svg>