<?xml version="1.0"?>
<svg xmlns="http://www.w3.org/2000/svg" id="Layer_1" data-name="Layer 1" viewBox="0 0 512 512" width="512px" height="512px" class=""><g><path d="M373.83,263.613V127.46a117.83,117.83,0,0,0-235.66,0V263.613a31.778,31.778,0,0,0-26.26,31.247v21.02a6,6,0,0,0,6,6H229.83v22.434l-22.428,20.6a6,6,0,0,0-1.942,4.419V402H193.17a6,6,0,0,0-6,6v49a6,6,0,0,0,6,6h12.29v33.36a6,6,0,0,0,12,0V463h11.69a6,6,0,0,0,6-6V408a6,6,0,0,0-6-6H217.46V371.966l22.428-20.6a6,6,0,0,0,1.942-4.42V321.88h28.34v25.07a6,6,0,0,0,1.942,4.42l22.428,20.6V402H282.85a6,6,0,0,0-6,6v49a6,6,0,0,0,6,6h11.69v33.36a6,6,0,0,0,12,0V463h12.29a6,6,0,0,0,6-6V408a6,6,0,0,0-6-6H306.54V369.33a6,6,0,0,0-1.942-4.419l-22.428-20.6V321.88H394.09a6,6,0,0,0,6-6V294.86A31.778,31.778,0,0,0,373.83,263.613ZM223.15,414v37H199.17V414Zm89.68,0v37H288.85V414Zm75.26-104.12H123.91V294.86a19.757,19.757,0,0,1,19.74-19.73H315a6,6,0,0,0,0-12H282.17V224.97h16.6a6,6,0,0,0,6-6V177.84a6,6,0,0,0-6-6H243a6,6,0,0,0,0,12h49.77v29.13H219.23V183.84h4.64a6,6,0,0,0,0-12H213.23a6,6,0,0,0-6,6v41.13a6,6,0,0,0,6,6h16.6v38.16H150.17V127.46a105.83,105.83,0,0,1,211.66,0V263.13h-23.5a6,6,0,1,0,0,12H368.35a19.757,19.757,0,0,1,19.74,19.73ZM241.83,263.13V224.97h28.34v38.16Z" data-original="#000000" class="active-path" data-old_color="#000000" fill="#FFFFFF"/><path d="M193.167,49.943a99.507,99.507,0,0,0-37,77.517V165a6,6,0,0,0,12,0V127.46a87.558,87.558,0,0,1,32.563-68.2,6,6,0,1,0-7.566-9.314Z" data-original="#000000" class="active-path" data-old_color="#000000" fill="#FFFFFF"/><path d="M225.006,32.567a99.233,99.233,0,0,0-17.522,7.675,6,6,0,1,0,5.852,10.476,87.2,87.2,0,0,1,15.4-6.745,6,6,0,0,0-3.729-11.406Z" data-original="#000000" class="active-path" data-old_color="#000000" fill="#FFFFFF"/></g> </svg>
